<svg fill="#ffffff" height="486pt" viewBox="0 -3 486.448 486" width="486pt" xmlns="http://www.w3.org/2000/svg"><path d="m419.574219 306.742188c-2.574219-1.277344-5.320313-2.1875-8.148438-2.695313-7.503906-1.457031-15.28125-.160156-21.90625 3.648437l-89.289062 51.527344c-1.722657-4.53125-4.4375-8.617187-7.949219-11.957031l194.167969-112.113281-80-138.578125-162.449219 93.785156-162.449219-93.785156-80 138.578125 133.472657 77.070312h-14.0625c-7.253907.011719-14.367188 1.980469-20.59375 5.699219l-20.367188 12.191406v-25.890625h-80v176h80v-28.070312l23.398438 9.246094c4.695312 1.886718 9.707031 2.84375 14.761718 2.824218h128.71875c7.453125.003906 14.761719-2.074218 21.097656-6l153.597657-95.085937c9.882812-5.71875 15.9375-16.296875 15.867187-27.710938-.003906-5.617187-1.472656-11.132812-4.265625-16-3.148437-5.503906-7.890625-9.925781-13.601562-12.683593zm45.019531-77.445313-189.167969 109.222656-51.203125-13.671875-45.285156-78.398437 221.664062-128zm-295.441406 32.183594c-11.835938 1.667969-23.050782-5.773438-26.113282-17.328125-1.671874-6.160156-.808593-12.730469 2.402344-18.25 6.679688-11.460938 21.355469-15.386719 32.871094-8.796875 2.964844 1.726562 5.511719 4.09375 7.449219 6.925781l-28.65625 16.542969zm-145.746094-32.183594 64-110.863281 140.59375 81.167968-28.457031 16.429688c-3.355469-5.277344-7.9375-9.667969-13.351563-12.800781-19.167968-10.945313-43.578125-4.378907-54.671875 14.707031-8.332031 14.164062-7.097656 31.992188 3.109375 44.875 10.203125 12.878906 27.277344 18.160156 42.972656 13.292969l24.796876 42.910156-20.238282-5.398437c-3.390625-.914063-6.886718-1.382813-10.398437-1.394532h-4.738281zm40.59375 234.925781h-48v-144h48zm349.3125-114.796875-153.761719 95.199219c-3.804687 2.351562-8.195312 3.597656-12.671875 3.597656h-128.71875c-3.015625.011719-6.003906-.558594-8.800781-1.679687l-29.359375-11.597657v-86.183593l28.574219-17.105469c3.746093-2.242188 8.023437-3.425781 12.386719-3.433594h50.800781c2.109375.011719 4.207031.296875 6.246093.847656l38.902344 10.402344 43.417969 11.597656 14.503906 3.867188c6.199219 1.925781 10.65625 7.351562 11.34375 13.804688-.003906 1.917968-.160156 3.832031-.464843 5.722656-1.859376 6.914062-8.09375 11.753906-15.253907 11.839844-1.191406-.082032-5.898437-1.039063-9.273437-1.808594l-83.121094-22.238282-4.125 15.453126 83.390625 22.3125c4.230469 1.125 8.550781 1.890624 12.910156 2.28125 14.492188-.019532 27.167969-9.746094 30.9375-23.738282.136719-.488281.136719-1 .238281-1.496094l96.105469-55.519531c3.316407-1.894531 7.207031-2.527343 10.953125-1.78125 1.410156.25 2.78125.703125 4.0625 1.34375 2.820313 1.351563 5.164063 3.523438 6.730469 6.230469 1.414063 2.457031 2.164063 5.242188 2.175781 8.082031.023438 5.792969-3.085937 11.148438-8.128906 14zm0 0"/><path d="m287.136719 257.871094c5.285156 9.207031 14.027343 15.917968 24.289062 18.640625 3.390625.910156 6.886719 1.371093 10.398438 1.375 18.097656-.027344 33.921875-12.203125 38.585937-29.691407 4.664063-17.488281-2.996094-35.925781-18.675781-44.964843-15.679687-9.035157-35.476563-6.417969-48.269531 6.382812-12.792969 12.804688-15.394532 32.601563-6.34375 48.273438zm11.464843-26.214844c2.515626-9.371094 10.425782-16.304688 20.046876-17.574219 9.621093-1.265625 19.058593 3.386719 23.910156 11.789063 5.4375 9.410156 3.875 21.292968-3.808594 28.976562-7.679688 7.683594-19.566406 9.246094-28.976562 3.8125-9.40625-5.433594-13.992188-16.511718-11.171876-27.003906zm0 0"/><path d="m240 104.222656c-4.417969 0-8-3.582031-8-8h-16c.042969 10.136719 6.445312 19.152344 16 22.53125v9.46875h16v-9.46875c11.011719-3.878906 17.621094-15.136718 15.644531-26.644531-1.980469-11.503906-11.96875-19.90625-23.644531-19.886719-4.417969 0-8-3.582031-8-8 0-4.417968 3.582031-8 8-8s8 3.582032 8 8h16c-.042969-10.132812-6.445312-19.148437-16-22.527344v-9.472656h-16v9.472656c-11.011719 3.878907-17.621094 15.136719-15.644531 26.640626 1.980469 11.507812 11.96875 19.910156 23.644531 19.886718 4.417969 0 8 3.582032 8 8 0 4.417969-3.582031 8-8 8zm0 0"/><path d="m240 160.222656c44.183594 0 80-35.816406 80-80 0-44.179687-35.816406-80-80-80s-80 35.820313-80 80c.046875 44.164063 35.835938 79.953125 80 80zm0-144c35.347656 0 64 28.65625 64 64 0 35.347656-28.652344 64-64 64s-64-28.652344-64-64c.039062-35.328125 28.671875-63.957031 64-64zm0 0"/></svg>